# xmcd
#
# Track frame offsets: 
#        150
#        18573
#        37005
#        56758
#        69315
#        83685
#        96890
#        115988
#        132693
#        143868
#        155058
#        169265
#        180275
#        192755
#
# Disc length: 2725 seconds
#
# Revision: 1
# Processed by: cddbd v1.5.2PL0 Copyright (c) Steve Scherf et al.
# Submitted via: ExactAudioCopy v1.0b3
#
DISCID=c40aa30e
DTITLE=Z. Z. Hill - Turn Back The Hands of Time
DYEAR=1996
DGENRE=Blues
TTITLE0=Ain't To Proud To Beg
TTITLE1=Turn Back The Hands Of Time
TTITLE2=My Girl
TTITLE3=It Can Be Fixed
TTITLE4=Nine Pound Steel
TTITLE5=Don't Make Me Pay For His Mistakes
TTITLE6=Mr. Nobody Somebody
TTITLE7=Sweet Woman
TTITLE8=One Way Love Affair
TTITLE9=Think People
TTITLE10=You Better Take Time
TTITLE11=Five Will Get You Ten
TTITLE12=The Right To Love
TTITLE13=You Were Wrong
EXTD=YEAR: 1996
EXTT0=
EXTT1=
EXTT2=
EXTT3=
EXTT4=
EXTT5=
EXTT6=
EXTT7=
EXTT8=
EXTT9=
EXTT10=
EXTT11=
EXTT12=
EXTT13=
PLAYORDER=
